<svg width="195" height="60" viewBox="0 0 195 60" fill="none" xmlns="http://www.w3.org/2000/svg">
<g clip-path="url(#clip0_3313_55504)">
<path d="M57.7626 46.5724H1L12.0986 28.3601L2.434 31.1683L1.3585 27.4639L15.0116 23.58L29.3812 0L39.5714 16.7193L15.0116 23.58L49.233 32.6083L57.7626 46.5724Z" fill="black"/>
<path d="M63.0703 1.73438H69.2938V40.7435H91.3648V46.6462H63.0703V1.73438Z" fill="black"/>
<path d="M95.7202 15.3361H101.687V46.6461H95.7202V15.3361ZM94.7578 5.26306C94.7578 3.14579 96.5542 1.28516 98.7358 1.28516C100.853 1.28516 102.713 3.14579 102.713 5.26306C102.713 7.44448 100.853 9.24096 98.7358 9.24096C96.5542 9.24096 94.7578 7.44448 94.7578 5.26306Z" fill="black"/>
<path d="M122.714 59.7996C117.196 59.7996 111.422 57.8107 108.727 54.4744L111.742 50.4322C114.116 52.9987 118.158 54.4744 122.586 54.4744C127.975 54.4744 132.017 50.7532 132.017 45.4919V41.6423C130.285 44.5937 125.858 46.7111 121.623 46.7111C112.962 46.7111 106.289 39.7176 106.289 30.6711C106.289 21.6887 112.962 14.6953 121.623 14.6953C125.922 14.6953 130.285 16.8126 132.017 19.6998V15.3369H137.92V42.7973H137.984V45.5561C137.984 54.1536 131.568 59.7996 122.714 59.7996ZM112.128 30.6711C112.128 36.702 116.683 41.2574 122.714 41.2574C126.499 41.2574 130.285 39.1401 132.017 36.1889V25.2175C130.285 22.2661 126.563 20.149 122.714 20.149C116.683 20.149 112.128 24.64 112.128 30.6711Z" fill="black"/>
<path d="M144.254 1.73438H150.221V19.8274C152.274 16.7478 156.124 14.6946 160.422 14.6946C168.186 14.6946 173.254 20.2123 173.254 28.7457V46.6462H167.287V29.5797C167.287 24.0619 164.015 20.5332 159.075 20.5332C155.418 20.5332 152.017 22.458 150.221 25.4094V46.6462H144.254V1.73438Z" fill="black"/>
<path d="M192.094 47.0311C185.486 47.0311 180.802 42.7967 180.802 35.3541V20.9824H174.707V15.3363H180.802V6.86719H186.705V15.3363H195.174V20.9824H186.705V35.0975C186.705 39.1395 189.4 41.5135 192.864 41.5135C193.57 41.5135 194.532 41.3852 195.174 41.1926L195.495 46.3897C194.597 46.7746 193.313 47.0311 192.094 47.0311Z" fill="black"/>
</g>
<defs>
<clipPath id="clip0_3313_55504">
<rect width="195" height="60" fill="white"/>
</clipPath>
</defs>
</svg>
